# xmcd CD database file
#
# Track frame offsets:
#	150
#	14550
#	26587
#	38485
#	49587
#	64830
#	80595
#	94995
#	106722
#	125440
#	136027
#	153647
#	169785
#	180390
#	195157
#	206407
#
# Disc length: 2920 seconds
#
# Revision: 2
# Processed by: cddbd v1.5.1PL0 Copyright (c) Steve Scherf et al.
# Submitted via: CDex 1.51
#
DISCID=c50b6610
DTITLE=Knock-out Greg and Blue Weather - Telling it like it is!
DYEAR=2002
DGENRE=Blues
TTITLE0=Something True Became A Lie
TTITLE1=Tell It Like It Is
TTITLE2=I'm So Ashamed, But I Didn't Know
TTITLE3=Do It If You Wanna
TTITLE4=Don't You Know?
TTITLE5=Rich Woman
TTITLE6=Do What You Did
TTITLE7=Put Your Hand Where Your Mouth Is
TTITLE8=D.O.A.
TTITLE9=The Night Is Young (And You're So Fine)
TTITLE10=Big Daddy's Slow Walk
TTITLE11=I'll Forgive You, Baby
TTITLE12=Messed Up
TTITLE13=This Little Voice
TTITLE14=I'm Workin'
TTITLE15=Hot Rolls
EXTD=YEAR: 2002
EXTT0=
EXTT1=
EXTT2=
EXTT3=
EXTT4=
EXTT5=
EXTT6=
EXTT7=
EXTT8=
EXTT9=
EXTT10=
EXTT11=
EXTT12=
EXTT13=
EXTT14=
EXTT15=
PLAYORDER=
